<?xml version="1.0" encoding="utf-8"?>
<!-- Generator: Adobe Illustrator 19.2.1, SVG Export Plug-In . SVG Version: 6.00 Build 0)  -->
<svg version="1.1" id="Layer_1" xmlns="http://www.w3.org/2000/svg" xmlns:xlink="http://www.w3.org/1999/xlink" x="0px" y="0px"
	 viewBox="0 0 240 240" style="enable-background:new 0 0 240 240;" xml:space="preserve">
<style type="text/css">
	.st0{fill:#3597D3;}
</style>
<g>
	<path class="st0" d="M56.4,135.7l52.3-52.3c0,0,0,0-0.1-0.1c6.8-6.7,11-16,11-26.3c0-10.1-4.1-19.3-10.7-26L56.6,83.3
		c0,0,0,0,0,0.1c-6.8,6.7-11,16-11,26.3C45.7,119.8,49.7,129,56.4,135.7z"/>
	<path class="st0" d="M145.3,120.9l38-38c0,0,0,0-0.1-0.1c6.8-6.7,11-16,11-26.3c0-10.1-4.1-19.3-10.7-26l-52.3,52.3l0,0l-38,38l0,0
		l-36.7,36.7c0,0,0,0,0,0.1c-6.8,6.7-11,16-11,26.3c0,10.2,4.1,19.3,10.7,26L93,173.2l15.6-15.6l22.4-22.4L145.3,120.9z"/>
	<path class="st0" d="M183.6,105.7L131.3,158c0,0,0,0,0,0.1c-6.8,6.7-11,16-11,26.3c0,10.2,4.1,19.3,10.7,26l52.3-52.3
		c0,0,0,0-0.1-0.1c6.8-6.7,11-16,11-26.3C194.3,121.5,190.3,112.3,183.6,105.7z"/>
</g>
</svg>
